<?xml version="1.0" encoding="UTF-8"?>
<svg id="Layer_2" data-name="Layer 2" xmlns="http://www.w3.org/2000/svg" viewBox="0 0 498.73 83.19">
  <defs>
    <style>
      .cls-1 {
        fill: #242d34;
      }
    </style>
  </defs>
  <g id="Logo_V2" data-name="Logo V2">
    <path class="cls-1" d="M45.67,0c-10.9,0-20.9,3.82-28.75,10.19,3.85.24,6.84,3.48,6.75,7.36-.1,3.98-3.4,7.12-7.38,7.02-3.68-.09-6.65-2.94-6.98-6.52C3.47,25.73,0,35.29,0,45.67c0,15.55,7.78,29.28,19.65,37.52,0-.21,0-10.99,0-17.68l7.48-2.51v17.63l5.37-1.75v-17.68l5.73-1.92v17.73s5.37-1.75,5.37-1.75v-17.78l3.43-1.15,2.31.84v17.27l5.37,1.94v-17.27s5.73,2.08,5.73,2.08v17.27l5.37,1.94v-17.27l7.05,2.55v16.67c11.21-8.32,18.48-21.66,18.48-36.69C91.34,20.45,70.89,0,45.67,0ZM76.03,60.65l-28.68-10.38-31.51,10.57.02-4.63,3.46-1.4c.68-12.96,13.36-22.78,27.12-22.78s25.88,9.7,26.49,22.73c-.02,0,3.09,1.43,3.12,1.43,0,.39-.01,3.27-.02,4.47Z"/>
    <g>
      <path class="cls-1" d="M132.99,64.52c12.04,7.85,32.4,4.82,37.12-10.01l14.83,5.01c-6.26,14.61-20.05,22.98-35.56,23.45-15.25.47-29.08-6.2-36.37-19.7-10.62-19.67-5.06-44.71,14.94-55.84,18.97-10.56,48.17-3.95,56.7,18.33l-14.16,5.26c-5.3-12.33-19.85-17.62-32.9-12.39-9.79,3.92-14.48,13.59-14.24,24.12.19,8.29,2.62,17.19,9.64,21.77Z"/>
      <path class="cls-1" d="M422.9,37.09c-6.65-.12-12.74,3.48-12.79,10.21l-.23,34.77h-15.6s-.01-55.22-.01-55.22l14.57-.6,2.08,6.04c8.27-7.56,17.89-8.6,27.54-4.51,6.95,2.94,10.01,10.79,9.98,18.23l-.14,35.96-14.82.05-.21-35.79c-.03-5.68-4.18-9.02-10.37-9.13Z"/>
      <polygon class="cls-1" points="334.36 68.53 334.33 82.19 293.64 82.29 293.65 3.9 309.75 3.99 309.72 68.55 334.36 68.53"/>
      <path class="cls-1" d="M498.66,63.57c.52,7.7-1.98,12.55-8.43,16.04-12.36,6.69-33.24,4.3-38.29-10.98l12.2-3.72c2.92,6.41,6.57,8.05,12.5,7.98,3.24-.04,6.65-1.23,7.42-3.97.88-3.08-.9-7.05-4.24-8.01-11.71-3.35-25.61-6.3-26.6-17.61-.44-5.11,1.83-10.27,6.1-13.28,11.58-8.15,32.82-5.88,37.56,9.05l-11.26,2.89c-2.81-8.05-15.78-9.41-18.48-2.66-1.79,4.29,4.19,6.57,8.25,7.48,4.91,1.86,21.21,3.87,23.27,16.78Z"/>
      <path class="cls-1" d="M250.14,27.05c4.9-.71,9.29-.72,15.68-.51l-23.33,54.79c-4.19,1.16-8.96,1.26-13.3.32l-23.12-55.02,15.09-.34,12.2,33.14,1.07,2.86c.22.58,2.19.14,2.83-.16l12.87-35.09Z"/>
      <polygon class="cls-1" points="282.82 81.91 267.34 82.17 267.32 50.52 267.54 26.51 282.8 26.4 282.82 81.91"/>
      <polygon class="cls-1" points="204.38 82.06 189.53 82.22 189.54 26.41 204.44 26.39 204.38 82.06"/>
      <ellipse class="cls-1" cx="196.89" cy="8.37" rx="8.4" ry="8.37"/>
      <path class="cls-1" d="M273.79.28c4.37-1.03,9.09,3.58,9.57,6.77.71,4.71-2.88,8.46-5.96,9.29-5.23,1.41-9.32-1.69-10.67-5.92-1.17-3.69,1.95-8.94,7.05-10.15Z"/>
      <path class="cls-1" d="M362.1,71.58c-8.92.13-14.7-7.21-13.96-14.85l42.01-.1c-.18-7.15-.91-14.4-4.6-19.72-7.8-11.26-21.8-13.83-34.58-9.52-12.39,4.18-18.72,16.86-17.89,30.07.59,9.36,6.45,17.24,13.41,21.51,14.01,8.6,35.78,3.95,42.01-12.92l-12.55-1.94c-3.21,5.03-7.57,7.38-13.84,7.47ZM362.74,36.01c6.13.18,11.44,3.93,11.82,10.97l-25.83-.07c.66-6.9,6.85-11.11,14.01-10.9Z"/>
    </g>
  </g>
</svg>