<?xml version="1.0" encoding="UTF-8"?>
<svg id="Layer_2" data-name="Layer 2" xmlns="http://www.w3.org/2000/svg" viewBox="0 0 91.34 92">
  <defs>
    <style>
      .cls-1 {
        fill: #fff;
      }

      .cls-2 {
        fill: #242d34;
      }
    </style>
  </defs>
  <g id="Layer_11" data-name="Layer 11">
    <path class="cls-2" d="M45.67,0c-10.9,0-20.9,3.82-28.75,10.19,3.85.24,6.84,3.48,6.75,7.36-.1,3.98-3.4,7.12-7.38,7.02-3.68-.09-6.65-2.94-6.98-6.52C3.47,25.73,0,35.29,0,45.67c0,25.22,20.45,45.67,45.67,45.67s45.67-20.45,45.67-45.67S70.89,0,45.67,0Z"/>
    <path class="cls-1" d="M72.93,54.75c-.61-13.03-12.68-22.73-26.49-22.73s-26.43,9.82-27.12,22.78l-3.46,1.4-.03,5.75c.54.2,2.87-1.59,3.81-1.63v24.6h53.21v-25.08c1.08.55,3.17,1.33,3.17,1.33,0,0,.02-4.51.02-5-.03,0-3.13-1.43-3.12-1.43ZM32.5,79.51l-5.37,3.07v-21.12l5.37-.96v19.01ZM43.6,77.85h-5.37v-20s5.37-1.52,5.37-1.52v21.51ZM49.33,77.85v-21.51l5.37,2.14v19.37s-5.37,0-5.37,0ZM65.81,82.58l-5.37-3.07v-19.01l5.37.96v21.12Z"/>
    <path class="cls-1" d="M47.81,73.89l-28.28,9.22c16.76,14.07,40.91,9.44,53.33-.15l-25.05-9.07Z"/>
    <path class="cls-2" d="M84.48,63.71l-37.12-13.44L7.26,63.72l8.5,3.1,31.26-10.48,28.95,10.48,8.5-3.1Z"/>
  </g>
</svg>